<?xml version="1.0" encoding="utf-8"?>
<!-- Generator: Adobe Illustrator 25.4.1, SVG Export Plug-In . SVG Version: 6.00 Build 0)  -->
<svg version="1.1" id="Layer_1" xmlns="http://www.w3.org/2000/svg" xmlns:xlink="http://www.w3.org/1999/xlink" x="0px" y="0px"
	 viewBox="0 0 48 48" style="enable-background:new 0 0 48 48;" xml:space="preserve">
<style type="text/css">
	.st0{fill:#00A9CE;}
	.st1{fill:#FFFFFF;}
</style>
<g>
	<g>
		<path class="st0" d="M19.7,27.4c-0.3,0.1-0.7,0.2-1.1,0.1c0,0,0,0-0.1,0c-0.1,0-0.1,0-0.2,0c0,0-0.1,0-0.1,0c-0.1,0-0.2,0-0.3-0.1
			c0,0,0,0,0,0c-0.1,0-0.2-0.1-0.4-0.2l0,0l0,0c-0.1,0-0.2-0.1-0.3-0.2l0,0c-0.1,0-0.1-0.1-0.2-0.2c0,0,0,0-0.1-0.1
			c0,0-0.1-0.1-0.2-0.2l0,0c-0.3-0.3-0.4-0.7-0.4-1c-0.1-0.8,0-1.6,1.8-5c1.9-3.4,2.5-3.8,3.2-4.2c0.3-0.1,0.7-0.2,1.1-0.1h0
			c0.1,0,0.2,0,0.3,0c0,0,0.1,0,0.1,0c0.1,0,0.2,0,0.3,0.1c0,0,0,0,0.1,0c0.1,0,0.2,0.1,0.4,0.2l0,0l0,0c0.1,0.1,0.2,0.1,0.4,0.2
			l0,0c0.1,0,0.1,0.1,0.2,0.2c0,0,0,0,0.1,0.1c0.1,0.1,0.1,0.1,0.2,0.2c0,0,0,0,0,0c0.2,0.3,0.4,0.7,0.4,1c0,0.3,0,0.5,0,0.9
			c0,0.3,0.1,0.6,0.4,0.8c0.7,0.4,1.5,0.8,2.2,1.2c0.4,0.2,1,0,1.1-0.5c0.4-2.9-1-5.3-3.5-6.7c-1.9-1.1-3.5-1.2-5.3-0.7
			c-2.5,0.7-3.6,2.7-5.1,5.3c-1.5,2.6-2.5,4.6-1.8,7.1c0.5,1.7,1.5,3,3.4,4.1c2.5,1.4,5.1,1.3,7.4-0.5c0.4-0.3,0.4-0.9-0.1-1.2
			c-0.7-0.4-1.5-0.8-2.1-1.2c-0.3-0.1-0.6-0.1-0.8,0.1C20.2,27.1,19.9,27.3,19.7,27.4z"/>
	</g>
	<g>
		<path class="st0" d="M28.9,13.1c0.3-0.1,0.7-0.2,1.1-0.1c0,0,0,0,0.1,0c0.1,0,0.1,0,0.2,0c0,0,0.1,0,0.1,0c0.1,0,0.2,0,0.3,0.1
			c0,0,0,0,0,0c0.1,0,0.2,0.1,0.4,0.2l0,0l0,0c0.1,0,0.2,0.1,0.3,0.2l0,0c0.1,0,0.1,0.1,0.2,0.2c0,0,0,0,0.1,0.1
			c0,0,0.1,0.1,0.2,0.2l0,0c0.3,0.3,0.4,0.7,0.4,1c0.1,0.8,0,1.6-1.8,5c-1.9,3.4-2.5,3.8-3.2,4.2c-0.3,0.1-0.7,0.2-1.1,0.1h0
			c-0.1,0-0.2,0-0.3,0c0,0-0.1,0-0.1,0c-0.1,0-0.2,0-0.3-0.1c0,0,0,0-0.1,0c-0.1,0-0.2-0.1-0.4-0.2l0,0l0,0
			c-0.1-0.1-0.2-0.1-0.4-0.2l0,0c-0.1,0-0.1-0.1-0.2-0.2c0,0,0,0-0.1-0.1c-0.1-0.1-0.1-0.1-0.2-0.2c0,0,0,0,0,0
			c-0.2-0.3-0.4-0.7-0.4-1c0-0.3,0-0.5,0-0.9c0-0.3-0.1-0.6-0.4-0.8c-0.7-0.4-1.5-0.8-2.1-1.2c-0.4-0.2-1,0-1.1,0.5
			c-0.4,2.9,1,5.3,3.5,6.6c1.9,1.1,3.5,1.2,5.3,0.7c2.5-0.7,3.6-2.7,5.1-5.3c1.5-2.6,2.5-4.6,1.8-7.1c-0.5-1.7-1.5-3-3.4-4.1
			C30,9.3,27.3,9.3,25,11.1c-0.4,0.3-0.4,0.9,0.1,1.2c0.7,0.4,1.5,0.8,2.1,1.2c0.3,0.1,0.6,0.1,0.8-0.1
			C28.5,13.3,28.7,13.1,28.9,13.1z"/>
	</g>
</g>
<g>
	<path class="st0" d="M44.5,6.6c0.5,0,1,0.5,1,1.2v24.7c0,0.6-0.4,1.2-1,1.2H3.5c-0.5,0-1-0.5-1-1.2V7.8c0-0.6,0.4-1.2,1-1.2H44.5
		 M44.5,4.1H3.5C1.6,4.1,0,5.7,0,7.8v24.7c0,2.1,1.6,3.7,3.5,3.7h40.9c1.9,0,3.5-1.7,3.5-3.7V7.8C48,5.7,46.4,4.1,44.5,4.1L44.5,4.1
		z"/>
</g>
<g>
	<path class="st0" d="M32.8,41H27c-0.2,0-0.4-0.2-0.4-0.4v-5c0-0.2-0.2-0.4-0.4-0.4h-4.7c-0.2,0-0.4,0.2-0.4,0.4v5
		c0,0.2-0.2,0.4-0.4,0.4h-5.6c-1.4,0-2.6,1.2-2.6,2.6l0,0c0,0.2,0.2,0.4,0.4,0.4h22.1c0.2,0,0.4-0.2,0.4-0.4l0,0
		C35.4,42.1,34.2,41,32.8,41z"/>
</g>
</svg>
