<svg version="1.1" viewBox="0 0 256 256" xmlns="http://www.w3.org/2000/svg">
 <defs>
  <style>.logo-text{fill:#fff}.logo{fill:#fff}</style>
 </defs>
 <g transform="matrix(2.251 0 0 2.251 -316.2 -123.1)">
  <g class="logo" transform="matrix(.736 0 0 -.736 91.62 214.7)">
   <path d="m158.9 200.6c-.041-.018-.08-.042-.121-.061-.161-.074-.322-.151-.477-.242l-15.47-8.929 18-10.45v20.09c-.662-.013-1.321-.151-1.941-.415" style="opacity:.6"/>
   <path d="m127.2 137.9 16.38 9.46-18.04 10.39.012-20.32c.597-.011 1.142.168 1.65.47" style="opacity:.8"/>
   <path d="m179.3 148.5-36.93 21.32-.004.002-1.733 1.001-33.28 19.2c-.237-.587-.37-1.221-.373-1.875-.001-.145-.001-.291-.001-.433v-38.16c0-1.21.659-2.324 1.719-2.906l15.2-8.878c.524-.288 1.105-.425 1.684-.414l-.016 19.55.004.77 34.48-19.86c.102-.056.206-.102.311-.147.032-.014.063-.032.095-.045.991-.387 1.82-.08 2.732.501l5.769 3.282 9.203 5.489c.541.404.936.964 1.149 1.595" style="opacity:.5"/>
   <path d="m179.5 173.7v14.47c0 1.854-1.01 3.56-2.635 4.452l-13.36 7.754c-.808.444-1.704.656-2.595.639v-20.09l-30.14 17.49-3.355 1.887c-1.461.82-2.761.88-4.258.194-.037-.017-.073-.041-.11-.059-.173-.084-.344-.173-.509-.277l-5.292-3.084-7.617-4.418c.004-.02 0 0 0 0-1.044-.573-1.823-1.519-2.255-2.588.044-.02 33.28-19.2 33.28-19.2l1.733-1.001.004-.002 36.93-21.32c.181.686.181 1.943.181 1.943z"/>
  </g>
  <g class="logo-text">
   <path d="m168.5 156.2h-1.219l-.641-4.271h-.0191l-1.259 3.288h-.8788l-1.259-3.288h-.0184l-.6484 4.271h-1.22l1.186-6.614h.8906l1.493 3.742h.0191l1.502-3.742h.8869z"/>
   <path d="m163 144.8h-3.038l-8.677-12.25h-.0258v12.25h-3.268v-17.87h3.038l8.677 12.28h.0258v-12.28h3.268z"/>
   <path d="m169.9 135.9c0 3.549 2.426 5.974 5.77 5.974 3.37 0 5.77-2.425 5.77-5.974s-2.4-5.974-5.77-5.974c-3.344 0-5.77 2.425-5.77 5.974m15.14 0c0 5.54-4.059 9.318-9.369 9.318-5.311 0-9.347-3.779-9.347-9.318s4.033-9.318 9.347-9.318c5.31 0 9.369 3.779 9.369 9.318"/>
   <path d="m191.8 134.8h2.809c1.889 0 2.783-.8935 2.783-2.4 0-1.455-.8935-2.451-2.783-2.451h-2.809zm1.225 2.885h-1.225v7.123h-3.268v-17.87h6.586c3.549 0 5.77 2.195 5.77 5.413 0 2.655-1.557 4.646-4.187 5.183l5.285 7.276h-4.111z"/>
   <path d="m208.1 130v11.85h2.604c3.217 0 5.616-2.067 5.616-5.923s-2.399-5.923-5.616-5.923zm11.75 5.923c0 5.566-3.907 8.935-9.296 8.935h-5.719v-17.87h5.719c5.387 0 9.296 3.369 9.296 8.935"/>
   <path d="m226.6 144.8h-3.294v-17.87h3.294z"/>
   <path d="m230.1 135.9c0-5.642 4.008-9.318 9.649-9.318 2.758 0 4.774.842 6.383 1.965l-1.889 2.86c-1.097-.7662-2.604-1.481-4.518-1.481-3.472 0-6.051 2.324-6.051 5.974s2.579 5.974 6.051 5.974c1.914 0 3.421-.7147 4.518-1.481l1.889 2.859c-1.608 1.124-3.625 1.966-6.383 1.966-5.642 0-9.649-3.676-9.649-9.318"/>
   <path d="m147.6 155.7.5388-1.105c.5292.3113 1.153.5763 1.786.5763.6241 0 .9354-.2738.9354-.6712 0-.34-.2451-.5667-.6705-.8692l-1.068-.7654c-.6992-.4821-1.049-1.03-1.049-1.738 0-1.03.6992-1.682 1.965-1.682.6617 0 1.323.1796 1.937.4629l-.5196 1.105c-.5005-.2554-.973-.4063-1.408-.4063-.5005 0-.6896.1892-.6896.4821 0 .2547.1509.4247.51.6801l1.144.803c.7367.5012 1.133 1.03 1.133 1.862 0 1.247-.8692 1.908-2.258 1.908-.8596 0-1.663-.2554-2.287-.6425"/>
   <path d="m158.8 155v1.133h-3.969v-6.614h3.921v1.133h-2.712v1.323h2.476v1.114h-2.476v1.909z"/>
   <path d="m172.4 156.2h-1.219v-6.614h1.219z"/>
   <path d="m172.4 156.2h-1.256v-6.614h1.256z"/>
   <path d="m174.9 152.9c0-2.088 1.484-3.449 3.572-3.449 1.021 0 1.767.3121 2.362.7279l-.6992 1.058c-.4063-.2826-.9634-.5476-1.672-.5476-1.285 0-2.24.8596-2.24 2.211s.9546 2.211 2.24 2.211c.7088 0 1.266-.2642 1.672-.5476l.6992 1.058c-.5947.4151-1.341.7272-2.362.7272-2.088 0-3.572-1.361-3.572-3.449"/>
   <path d="m184.1 152.9c0 1.314.8979 2.211 2.135 2.211 1.248 0 2.136-.8972 2.136-2.211 0-1.313-.8884-2.211-2.136-2.211-1.237 0-2.135.8979-2.135 2.211m5.603 0c0 2.05-1.502 3.449-3.468 3.449-1.965 0-3.458-1.398-3.458-3.449s1.493-3.449 3.458-3.449c1.966 0 3.468 1.398 3.468 3.449"/>
   <path d="m197.8 156.2h-1.125l-3.212-4.535h-.0103v4.535h-1.209v-6.614h1.125l3.213 4.545h.01v-4.545h1.209z"/>
   <path d="m202.1 150.7v4.384h.9634c1.191 0 2.079-.7654 2.079-2.193 0-1.426-.8884-2.192-2.079-2.192zm4.347 2.192c0 2.06-1.446 3.308-3.44 3.308h-2.116v-6.614h2.116c1.994 0 3.44 1.248 3.44 3.307"/>
   <path d="m214.4 153.6c0 1.673-.9921 2.74-2.722 2.741-1.738 0-2.731-1.068-2.731-2.741v-4.006h1.276v3.931c0 .9538.5667 1.568 1.454 1.568.8795 0 1.446-.6146 1.446-1.568v-3.931h1.276z"/>
   <path d="m216.9 152.9c0-2.088 1.484-3.449 3.572-3.449 1.021 0 1.767.3121 2.362.7279l-.6992 1.058c-.4063-.2826-.9634-.5476-1.672-.5476-1.285 0-2.24.8596-2.24 2.211s.9546 2.211 2.24 2.211c.7088 0 1.266-.2642 1.672-.5476l.6992 1.058c-.5947.4151-1.341.7272-2.362.7272-2.088 0-3.572-1.361-3.572-3.449"/>
   <path d="m229.6 150.7h-1.805v5.48h-1.21v-5.48h-1.805v-1.134h4.819z"/>
   <path d="m232.8 152.9c0 1.314.8979 2.211 2.135 2.211 1.248 0 2.136-.8972 2.136-2.211 0-1.313-.8884-2.211-2.136-2.211-1.237 0-2.135.8979-2.135 2.211m5.603 0c0 2.05-1.502 3.449-3.468 3.449-1.965 0-3.458-1.398-3.458-3.449s1.493-3.449 3.458-3.449c1.966 0 3.468 1.398 3.468 3.449"/>
   <path d="m242.1 152.5h1.04c.6992 0 1.03-.3305 1.03-.8876 0-.5388-.3305-.9075-1.03-.9075h-1.04zm.4534 1.068h-.4534v2.636h-1.209v-6.614h2.438c1.314 0 2.135.8125 2.135 2.003 0 .9826-.5763 1.719-1.549 1.918l1.956 2.693h-1.521z"/>
   <path d="m249.8 129h.6786c.3643 0 .5491-.1273.5491-.41 0-.2576-.1847-.3812-.5343-.3812h-.6933zm0 .1649v.9384h-.1788v-2.062h.9097c.3952 0 .6845.1737.6845.5461 0 .2399-.1097.4247-.3871.4909.1619.0405.3319.156.3319.5108v.0839c0 .1678 0 .3496.0236.4306h-.1855c-.0287-.0898-.0199-.2657-.0199-.4129v-.0692c0-.3555-.1384-.4563-.5343-.4563z"/>
   <path d="m249.9 129h.6227c.4372 0 .4931-.1899.4931-.3548 0-.0802 0-.3253-.4784-.3253h-.6374zm.6227.1111h-.7338v-.9023h.7485c.488 0 .5903.2377.5903.4364 0 .3098-.2031.4659-.605.4659m.5645.9921h.0736c-.0118-.0971-.0118-.2377-.0118-.3746v-.0839c0-.3444-.1656-.4262-.29-.4571l-.2215-.0552.2215-.053c.2318-.0559.3444-.1987.3444-.4364 0-.4423-.4394-.4902-.6286-.4902h-.8538v1.95h.0677v-.9384h.6992c.3739 0 .5903.0839.5903.5115l-.00074.156c-.00074.0949-.002.2009.01.2708m.2142.1111h-.2996l-.0125-.0383c-.0258-.0817-.0243-.2156-.0228-.3452l.00074-.1546c0-.3143-.103-.4004-.4791-.4004h-.5885v.9384h-.29v-2.173h.9649c.4637 0 .7404.2252.7404.602 0 .2348-.0979.4033-.2863.4946.1538.092.2311.2613.2311.5071v.0839c0 .1604 0 .3415.0213.4151z"/>
   <path d="m250.4 127.3c-.9781 0-1.774.7956-1.774 1.774s.7956 1.774 1.774 1.774 1.774-.7956 1.774-1.774-.7956-1.774-1.774-1.774m0 3.729c-1.078 0-1.955-.8766-1.955-1.955 0-1.078.8773-1.954 1.955-1.954s1.955.8766 1.955 1.954c0 1.078-.8773 1.955-1.955 1.955"/>
   <path d="m250.4 127.3c-.9472 0-1.718.7706-1.718 1.719 0 .9472.7706 1.718 1.718 1.718s1.719-.7706 1.718-1.719c0-.9472-.7706-1.718-1.718-1.718m0 3.548c-1.009 0-1.83-.8206-1.83-1.829 0-1.009.8206-1.83 1.83-1.83s1.83.8206 1.83 1.829c0 1.009-.8206 1.83-1.83 1.83m0-3.728c-1.047 0-1.899.8516-1.899 1.899 0 1.047.8523 1.898 1.899 1.898s1.899-.8516 1.899-1.899c0-1.047-.8523-1.898-1.899-1.898m0 3.909c-1.108 0-2.01-.9023-2.01-2.01 0-1.109.9016-2.011 2.01-2.011s2.01.9016 2.011 2.01c0 1.108-.9023 2.011-2.011 2.011"/>
  </g>
 </g>
</svg>
